<svg version="1" xmlns="http://www.w3.org/2000/svg" width="1422.667" height="1422.667" viewBox="0 0 1067.000000 1067.000000"><path d="M92.9 141.4c-.2.2-2.8.7-5.8 1.1-19.1 2.4-41.8 14.2-57.7 30.1C22 180 13 191.6 13 193.8c0 .5-.8 2-1.9 3.3-1.9 2.5-8.4 19-9.8 25C.9 224 .5 329.7.5 457v231.5l2.7 8.5c9.4 29.1 29.3 51.5 57.2 64.5 8.4 3.9 18.1 7.3 23.1 8 1.1.2 4.5.6 7.5 1.1 3 .4 144.4.8 314.3.8l308.7.1.1 8c0 4.4.2 9.3.3 10.8.1 1.6-.2 3.1-.6 3.3-.5.3-.6 1-.2 1.5.3.5.5 6.2.4 12.7-.1 6.4-.1 12.6-.1 13.7 0 2-.5 2-147.2 1.8-81-.2-163.5-.3-183.4-.3h-36.2l-.3-13.7-.3-13.7-52-.1c-28.6 0-52.4.1-53 .2-2 .6-.8 40.4 1.5 49.3.5 1.9 1.1 4.6 1.4 6 1 5.1 7.9 21.6 9.5 23 .3.3 1.7 2.5 3 5 1.4 2.5 3 5 3.5 5.6.6.6 2.5 2.8 4.1 4.9 2.8 3.6 10.7 11.7 13.7 14 .7.6 3.1 2.5 5.3 4.2 3.8 3 6.7 4.8 16.2 9.8 4.1 2.2 16.2 6.7 21.8 8 3 .8 4.1.9 12.5 2.1 4.9.6 385 1.2 386.3.6.5-.2 3.2-.6 6-.8 6.4-.4 15.5-2.5 22.4-5.2 2.9-1.1 5.4-1.7 5.7-1.4.4.3.6 0 .6-.6 0-.7.3-1.1.8-1 1 .3 10.5-4.6 16.5-8.6 6.7-4.5 14.5-11.2 18.8-16.1 1.9-2.2 4.1-4.7 4.9-5.6 7.4-8.5 16.5-26.4 19.5-38.3 1.8-7.6 2-8.5 3-14.2.6-3.8.7-70 .1-73.9-.1-1.1-.6-4.5-1.1-7.5-.4-3-1.4-7.2-2.1-9.2-.7-2.1-1.3-3.9-1.3-4.1 0-.1-.4-1.5-1-3-.6-1.6-1.1-3-1.1-3.2 0-2.8-11.6-22.7-17-29-10-11.7-26.4-24-39.7-29.5-4.2-1.8-8.3-3.3-9.2-3.5-.9-.3-4.2-1.1-7.3-2-3.2-.8-9.2-1.9-13.5-2.3-4.3-.4-146.1-.7-315-.7H103l-.1-6.5c0-7.6 0-407.7.1-413.2v-3.6h855v8.1c.4 71.1 0 414.1-.4 414.5-.3.3-19.1.5-41.6.5-22.6 0-41.3.4-41.5.8-.4.5-.7 62.4-.5 98.4v5l46.8-.1c38.4 0 55.5-.6 60.2-1.9.3-.1 1.9-.5 3.5-.9 25-6.1 48-22 62.2-43.1 6.1-8.9 10-16.9 13.2-27 2.9-9.1 3.6-11.9 4.8-21 .8-6.5.9-436.1 0-444-1-9.5-1.4-11.5-4.6-21-2.6-8-4.5-12-10.7-23-3.2-5.6-10.1-14-16.5-19.8-8.3-7.6-8.9-8.1-12.4-10.3-1.6-1-3.2-2.1-3.5-2.4-2.8-2.9-22.1-11.5-30.5-13.6-1.6-.4-3.4-.8-4-1-.5-.1-2.3-.6-4-1-2.9-.9-884.8-1.8-885.6-1z"/><path d="M240.3 539.6c.2 1.3.1 2.7-.3 2.9-.4.2-.5 1.7-.3 3.2.8 5.6.8 7.8 0 9-.4.6-.4 1.4.2 1.7.6.4.6 1.8.1 3.6-.5 1.7-.5 3 0 3s.5 1.3 0 2.9c-.4 1.6-.6 3.2-.4 3.4.9.9 1 11.8.2 12.3-.5.3-.5 1-.1 1.7.8 1.3 1.1 5.7.3 5.7-.3 0-.5 1.8-.5 4s.2 4 .5 4 .5 1.1.5 2.5-.4 2.5-.8 2.5-.3.8.2 1.8.6 2.4.1 3.3c-.5.8-.5 2.1 0 2.8.4.8.4 2.6 0 4.2-.5 1.5-.6 3-.4 3.2.9.9 1 11.8.2 12.3-.5.3-.5 1-.1 1.7.9 1.4 1.1 5.7.2 5.7-.3 0-.3 1.7 0 3.7l.6 3.8 53 .1c50.2.1 56.5-.2 55-2.6-.3-.5-.5-3-.5-5.7 0-6.2 0-13.8-.2-16.1 0-.9 0-3.1.1-4.7.2-6.6.2-8.1.2-9.3-.1-.6-.1-1.8-.2-2.5 0-.6.1-3.9.2-7.3.1-3.3 0-6.5-.4-7-.3-.6-.2-2.6.2-4.6.5-2 .5-4.2.1-4.9-.5-.7-.4-2.3 0-3.5.5-1.3.5-2.6.1-2.9-.8-.4-.5-6.3.4-9.1.2-.6-.1-1.7-.5-2.5-.5-.7-.5-1.8.1-2.5s.6-1.5.1-1.8c-.8-.5-.5-8.5.4-9.5.2-.2-.1-1.1-.6-2.1-.6-1-.6-3 0-4.8.7-2.5.5-3.2-.8-3.6-.9-.3-25.5-.5-54.6-.5h-52.8l.5 2.5z"/></svg>